<?xml version="1.0"?>
<svg
  version="1.1"
  baseProfile="full"
  width="24px"
  height="24px"
  xmlns="http://www.w3.org/2000/svg">

  <path
    fill="none"
    stroke="#444"
    stroke-width="0.5"
    fill-rule="evenodd"
    d="

    M 2,18
    L 8,6
    H 10
    V 18
    H 8
    V 16
    H 5.168
    L 4.236,18
    Z

    M 8,10
    V 14
    H 6.236
    Z

    M 12 6
    H 13
    C 19,6
      19,12
      19,12
    C 19,12
      19,18
      13,18
    H 12
    Z

    M 14 8
    C 17,8
      17,12
      17,12
    C 17,12
      17,16
      14,16
    Z

    M 18 6
    C 24,8
      24,16
      18,18
    C 22,16
      22,8
      18,6
    Z

  "/>

</svg>